<svg xmlns="http://www.w3.org/2000/svg" width="21" height="20" viewBox="0 0 21 20"><g><g><path fill="#272d4e" d="M14.062 10a3.342 3.342 0 0 1-3.334 3.335A3.342 3.342 0 0 1 7.393 10a3.342 3.342 0 0 1 3.335-3.335A3.342 3.342 0 0 1 14.062 10zm6.602 4.128c-.077 1.6-.44 3.02-1.613 4.193-1.171 1.17-2.592 1.536-4.193 1.613-1.379.078-2.747.065-4.128.065-1.378 0-2.747.013-4.128-.065-1.6-.077-3.02-.44-4.193-1.613C1.24 17.15.873 15.729.796 14.128.718 12.749.73 11.378.73 10c0-1.378-.013-2.747.065-4.128.077-1.6.44-3.02 1.613-4.193C3.58.51 5.001.143 6.602.066 7.981-.012 9.35 0 10.73 0c1.378 0 2.747-.013 4.128.065 1.6.077 3.02.44 4.193 1.613 1.17 1.171 1.536 2.592 1.613 4.193.078 1.379.065 2.747.065 4.128 0 1.38.015 2.75-.065 4.128zM15.858 10a5.124 5.124 0 0 0-5.13-5.131A5.124 5.124 0 0 0 5.596 10a5.124 5.124 0 0 0 5.13 5.131A5.124 5.124 0 0 0 15.858 10zm.67-4.234a1.196 1.196 0 0 0 .739-1.107c0-.663-.535-1.198-1.198-1.198-.663 0-1.199.535-1.199 1.198a1.197 1.197 0 0 0 1.657 1.107z"/></g></g></svg>