<svg xmlns="http://www.w3.org/2000/svg" width="169" height="34" viewBox="0 0 169 34"><g><g><g><path fill="#9b5c8f" d="M5.313 0H51.91a5.334 5.334 0 0 1 5.336 5.336v17.787a5.334 5.334 0 0 1-5.336 5.336H35.2l2.293 5.617-10.087-5.617H5.336A5.334 5.334 0 0 1 0 23.123V5.336C-.023 2.411 2.364 0 5.313 0z"/></g><g><path fill="#fff" d="M2.854 4.846c.328-.444.82-.678 1.475-.725 1.193-.094 1.872.468 2.036 1.685.725 4.891 1.52 9.034 2.363 12.427l5.126-9.76c.468-.888 1.053-1.357 1.755-1.403 1.03-.07 1.662.585 1.92 1.966.584 3.112 1.333 5.757 2.223 8.004.608-5.945 1.638-10.228 3.089-12.872.351-.656.866-.983 1.545-1.03.538-.047 1.03.117 1.474.468.445.351.679.796.726 1.334.023.421-.047.772-.234 1.123-.913 1.685-1.662 4.517-2.27 8.45-.586 3.814-.796 6.786-.656 8.916.047.585-.047 1.1-.28 1.545-.282.515-.703.795-1.241.842-.609.047-1.24-.234-1.85-.866-2.176-2.223-3.908-5.546-5.171-9.97a438.693 438.693 0 0 0-3.37 6.74c-1.381 2.645-2.552 4.003-3.534 4.073-.632.047-1.17-.492-1.639-1.615-1.193-3.066-2.48-8.987-3.861-17.764-.07-.608.046-1.146.374-1.568z"/></g><g><path fill="#fff" d="M53.174 8.515c.749 1.264 1.123 2.785 1.123 4.61 0 2.411-.608 4.611-1.825 6.624-1.404 2.34-3.23 3.51-5.5 3.51-.398 0-.82-.046-1.264-.14-1.662-.35-2.902-1.24-3.745-2.714-.749-1.288-1.123-2.832-1.123-4.634 0-2.411.609-4.611 1.825-6.6 1.428-2.34 3.254-3.511 5.5-3.511.398 0 .82.047 1.264.14 1.662.351 2.902 1.24 3.745 2.715zm-2.949 6.483c.094-.538.164-1.123.164-1.732a5.94 5.94 0 0 0-.421-2.13c-.352-.912-.82-1.404-1.381-1.52-.843-.165-1.662.304-2.434 1.45a7.568 7.568 0 0 0-1.24 2.785 8.139 8.139 0 0 0-.165 1.709c0 .679.14 1.404.422 2.13.35.912.819 1.404 1.38 1.52.586.118 1.218-.14 1.896-.748.866-.772 1.451-1.92 1.779-3.464z"/></g><g><path fill="#fff" d="M38.504 8.515c.749 1.264 1.123 2.785 1.123 4.61 0 2.411-.608 4.611-1.825 6.624-1.404 2.34-3.23 3.51-5.5 3.51-.398 0-.82-.046-1.264-.14-1.662-.35-2.902-1.24-3.745-2.714-.749-1.288-1.123-2.832-1.123-4.634 0-2.411.609-4.611 1.826-6.6 1.427-2.34 3.253-3.511 5.5-3.511.397 0 .819.047 1.263.14 1.639.351 2.902 1.24 3.745 2.715zm-2.949 6.483a8.212 8.212 0 0 0 .164-1.732 5.94 5.94 0 0 0-.421-2.13c-.352-.912-.82-1.404-1.381-1.52-.843-.165-1.662.304-2.434 1.45a7.567 7.567 0 0 0-1.24 2.785 8.139 8.139 0 0 0-.165 1.709c0 .679.14 1.404.422 2.13.35.912.819 1.404 1.38 1.52.586.118 1.218-.14 1.896-.748.866-.772 1.451-1.92 1.779-3.464z"/></g><g><g><g><path d="M63.17 8.307c1.568-1.545 3.534-2.317 5.922-2.294.912 0 1.778.094 2.55.305v3.791c-.842-.234-1.614-.351-2.34-.351-1.123 0-2.036.421-2.785 1.287-.725.843-1.1 1.943-1.1 3.277 0 1.427.375 2.55 1.124 3.393.748.82 1.731 1.24 2.972 1.24.608 0 1.31-.116 2.13-.35v3.791c-.89.258-1.709.375-2.434.375-2.505 0-4.517-.796-6.062-2.364-1.545-1.568-2.317-3.651-2.317-6.202 0-2.387.772-4.353 2.34-5.898zm21.532-.164c1.217 1.451 1.825 3.51 1.825 6.179 0 2.668-.608 4.75-1.802 6.225-1.193 1.475-2.902 2.224-5.125 2.224-2.294 0-4.049-.75-5.242-2.224-1.194-1.474-1.803-3.604-1.803-6.389 0-2.574.586-4.587 1.803-6.015 1.217-1.427 2.902-2.153 5.055-2.153 2.293 0 4.049.726 5.289 2.153zm-2.762 6.132c0-3.113-.842-4.657-2.48-4.657-1.569 0-2.34 1.52-2.34 4.587 0 1.99.186 3.3.584 3.955.398.655.96.983 1.709.983.795 0 1.427-.328 1.849-.983.42-.655.655-1.966.678-3.885zm21.72-7.84l2.152 15.938h-4.26l-1.146-10.953-2.668 10.953h-2.902L92.05 11.396l-1.1 10.977h-4.072l2.036-15.938h5.43c.772 3.44 1.38 6.389 1.825 8.87l.468-2.481c.187-.96.398-1.896.608-2.809l.843-3.58zm19.471 0l2.153 15.938h-4.26l-1.146-10.953-2.645 10.953h-2.902l-2.785-10.977-1.1 10.977h-4.072l2.036-15.938h5.43c.772 3.44 1.38 6.389 1.825 8.87l.468-2.481c.188-.96.398-1.896.609-2.809l.843-3.58zm7.7 12.568h4.424v3.393h-8.73V6.458h8.706v3.394h-4.4v2.925h3.815v3.3h-3.815zm16.547-5.454c-.445.726-1.1 1.264-1.92 1.639l3.441 7.185h-4.54l-3.487-7.255h-.07v7.255h-4.307V6.435h5.008c2.013 0 3.628.444 4.798 1.31 1.17.866 1.756 2.06 1.756 3.558 0 .772-.235 1.521-.68 2.246zm-6.6-.257c1.896-.023 2.855-.585 2.855-1.685 0-.749-.21-1.264-.655-1.592-.445-.327-1.17-.491-2.2-.514zm9.806-4.985c1.568-1.545 3.558-2.317 5.921-2.294.913 0 1.779.094 2.551.305v3.791c-.842-.234-1.615-.351-2.34-.351-1.124 0-2.036.421-2.785 1.287-.726.843-1.1 1.943-1.1 3.277 0 1.427.374 2.55 1.123 3.393.75.82 1.732 1.24 2.973 1.24.608 0 1.31-.116 2.13-.35v3.791c-.89.258-1.71.375-2.435.375-2.504 0-4.517-.796-6.061-2.364-1.545-1.568-2.317-3.651-2.317-6.202 0-2.387.772-4.353 2.34-5.898zm13.972 10.672h4.447v3.394h-8.73V6.435h8.707v3.393h-4.424v2.926h3.815v3.3h-3.815z"/></g></g></g></g></g></svg>