<svg xmlns="http://www.w3.org/2000/svg" width="41" height="41" viewBox="0 0 41 41"><g><g><path fill="#fff" d="M0 20.5C0 9.178 9.178 0 20.5 0S41 9.178 41 20.5 31.822 41 20.5 41 0 31.822 0 20.5zm10.906-3.506a10.25 10.25 0 0 1 6.109-6.088l-2.268-5.39a16.096 16.096 0 0 0-9.228 9.23zm6.088 13.1a10.183 10.183 0 0 1-6.088-6.068L5.52 26.254a16.093 16.093 0 0 0 9.21 9.22zm13.1-6.088a10.204 10.204 0 0 1-6.047 6.088l2.225 5.38a16.093 16.093 0 0 0 9.202-9.204zm-6.047-13.08a10.214 10.214 0 0 1 6.047 6.028l5.38-2.226a16.096 16.096 0 0 0-9.194-9.2zM14.35 20.5a6.142 6.142 0 0 0 6.15 6.15 6.142 6.142 0 0 0 6.15-6.15 6.142 6.142 0 0 0-6.15-6.15 6.142 6.142 0 0 0-6.15 6.15z"/></g></g></svg>