<svg xmlns="http://www.w3.org/2000/svg" width="21" height="20" viewBox="0 0 21 20"><g><g><path fill="#272d4e" d="M2.643 0c9.952 0 18.051 8.076 18.093 18.018h.002v1.052h-.012a1.042 1.042 0 0 1-.911.918V20h-1.87v-.002a1.043 1.043 0 0 1-1.016-.928h-.012v-1.052h.01c-.042-7.842-6.432-14.21-14.284-14.21H2.62l-.018-.002v.015H1.55V3.81a1.041 1.041 0 0 1-.918-.911H.62v-1.87h.002A1.044 1.044 0 0 1 1.55.011V0h1.052v.002h.018L2.643 0zm10.888 18.018h.001v1.052h-.012a1.041 1.041 0 0 1-.911.917V20h-1.87v-.002a1.044 1.044 0 0 1-1.016-.928h-.011v-1.052h.01c-.042-3.869-3.2-7.003-7.08-7.003l-.022-.001-.018-.001v.014H1.55v-.012a1.041 1.041 0 0 1-.918-.911H.62v-1.87h.002a1.044 1.044 0 0 1 .928-1.016v-.012h1.052v.002h.018l.023-.002c5.978 0 10.846 4.843 10.887 10.812zM3.469 14.539a2.665 2.665 0 0 1 2.465 3.688 2.668 2.668 0 0 1-4.928 0A2.667 2.667 0 0 1 3.47 14.54z"/></g></g></svg>